<svg width="574" height="46" viewBox="0 0 574 46" fill="none" xmlns="http://www.w3.org/2000/svg">
<g filter="url(#filter0_d_1_3)">
<mask id="path-1-inside-1_1_3" fill="white">
<path d="M4.14191 5.93324H18.1029V36.9114H23.3643V6.03743H37.4469V1.21011H4.14191V5.93324Z"/>
<path d="M78.4617 16.4387H58.3016V1.31429H53.0575V37.0156H58.3016V21.1618H78.4617V37.0156H83.7057V1.31429H78.4617V16.4387Z"/>
<path d="M105.186 37.0156H133.038V32.1709H110.43V21.1618H126.249V16.3345H110.43V6.03742H133.038V1.31429H105.186V37.0156Z"/>
<path d="M193.397 16.6471L178.689 1.31429H173.341V37.0156H178.793V8.81573L190.619 21.1618H196.279L208.105 8.91992V37.0156H213.331V1.31429H208.105L193.397 16.6471Z"/>
<path d="M234.499 37.0156H262.369V32.1709H239.76V21.1618H255.579V16.3345H239.76V6.03742H262.369V1.31429H234.499V37.0156Z"/>
<path d="M287.46 1.21011H282.199V36.9114H309.652V32.0667H287.46V1.21011Z"/>
<path d="M356.015 30.4518C353.341 31.268 349.694 31.9625 345.544 31.9625C336.08 31.9625 331.462 27.5346 331.462 18.8003C331.462 10.066 336.08 5.51649 345.544 5.51649C349.243 5.51649 354.174 6.54099 356.432 7.16611L357.769 2.52981C354.469 1.40112 350.163 0.776001 345.544 0.776001C334.327 0.776001 325.992 6.43681 325.992 18.8871C325.992 31.3374 334.431 36.9982 345.544 36.9982C350.059 36.9982 355.303 36.3731 361.259 33.8032V18.3662H356.015V30.4518Z"/>
<path d="M412.484 37.0156L412.554 37.1198V37.0156H412.484Z"/>
<path d="M395.901 22.2905H387.062V6.0374H395.901C403.211 6.0374 407.535 8.29478 407.535 14.2681C407.535 20.2415 403.211 22.2905 395.901 22.2905ZM412.866 14.3723C412.866 4.17941 404.844 1.29691 395.901 1.29691H381.923V36.894H387.184V27.1178H398.176L405.677 36.9982H412.467L403.923 26.3017C409.046 24.7563 412.866 21.266 412.866 14.3723Z"/>
<path d="M439.59 24.5653L445.98 5.7422L452.249 24.5653H439.59ZM442.472 1.71366L429.727 36.9982H435.283L437.836 29.3926H453.881L456.451 36.9982H462.112L449.366 1.4011L442.472 1.71366Z"/>
<path d="M506.321 31.5631L486.891 1.31429H480.309V37.0156H485.553L485.154 8.81573L503.248 37.0156H511.253V1.31429H506.009L506.321 31.5631Z"/>
<path d="M550.01 32.1709C539.435 32.1709 535.824 26.3017 535.824 19.0955C535.824 11.8892 539.314 6.03743 550.01 6.03743C560.707 6.03743 564.301 11.9066 564.301 19.0955C564.301 26.2844 560.603 32.1709 550.01 32.1709ZM550.115 1.00175C538.897 1.00175 530.371 6.66255 530.371 19.1129C530.371 31.5632 538.897 37.224 550.115 37.224C561.332 37.224 569.858 31.5632 569.858 19.1129C569.858 6.66255 561.332 1.00175 550.115 1.00175Z"/>
</mask>
<path d="M4.14191 5.93324H18.1029V36.9114H23.3643V6.03743H37.4469V1.21011H4.14191V5.93324Z" fill="#90775D"/>
<path d="M78.4617 16.4387H58.3016V1.31429H53.0575V37.0156H58.3016V21.1618H78.4617V37.0156H83.7057V1.31429H78.4617V16.4387Z" fill="#90775D"/>
<path d="M105.186 37.0156H133.038V32.1709H110.43V21.1618H126.249V16.3345H110.43V6.03742H133.038V1.31429H105.186V37.0156Z" fill="#90775D"/>
<path d="M193.397 16.6471L178.689 1.31429H173.341V37.0156H178.793V8.81573L190.619 21.1618H196.279L208.105 8.91992V37.0156H213.331V1.31429H208.105L193.397 16.6471Z" fill="#90775D"/>
<path d="M234.499 37.0156H262.369V32.1709H239.76V21.1618H255.579V16.3345H239.76V6.03742H262.369V1.31429H234.499V37.0156Z" fill="#90775D"/>
<path d="M287.46 1.21011H282.199V36.9114H309.652V32.0667H287.46V1.21011Z" fill="#90775D"/>
<path d="M356.015 30.4518C353.341 31.268 349.694 31.9625 345.544 31.9625C336.08 31.9625 331.462 27.5346 331.462 18.8003C331.462 10.066 336.08 5.51649 345.544 5.51649C349.243 5.51649 354.174 6.54099 356.432 7.16611L357.769 2.52981C354.469 1.40112 350.163 0.776001 345.544 0.776001C334.327 0.776001 325.992 6.43681 325.992 18.8871C325.992 31.3374 334.431 36.9982 345.544 36.9982C350.059 36.9982 355.303 36.3731 361.259 33.8032V18.3662H356.015V30.4518Z" fill="#90775D"/>
<path d="M412.484 37.0156L412.554 37.1198V37.0156H412.484Z" fill="#90775D"/>
<path d="M395.901 22.2905H387.062V6.0374H395.901C403.211 6.0374 407.535 8.29478 407.535 14.2681C407.535 20.2415 403.211 22.2905 395.901 22.2905ZM412.866 14.3723C412.866 4.17941 404.844 1.29691 395.901 1.29691H381.923V36.894H387.184V27.1178H398.176L405.677 36.9982H412.467L403.923 26.3017C409.046 24.7563 412.866 21.266 412.866 14.3723Z" fill="#90775D"/>
<path d="M439.59 24.5653L445.98 5.7422L452.249 24.5653H439.59ZM442.472 1.71366L429.727 36.9982H435.283L437.836 29.3926H453.881L456.451 36.9982H462.112L449.366 1.4011L442.472 1.71366Z" fill="#90775D"/>
<path d="M506.321 31.5631L486.891 1.31429H480.309V37.0156H485.553L485.154 8.81573L503.248 37.0156H511.253V1.31429H506.009L506.321 31.5631Z" fill="#90775D"/>
<path d="M550.01 32.1709C539.435 32.1709 535.824 26.3017 535.824 19.0955C535.824 11.8892 539.314 6.03743 550.01 6.03743C560.707 6.03743 564.301 11.9066 564.301 19.0955C564.301 26.2844 560.603 32.1709 550.01 32.1709ZM550.115 1.00175C538.897 1.00175 530.371 6.66255 530.371 19.1129C530.371 31.5632 538.897 37.224 550.115 37.224C561.332 37.224 569.858 31.5632 569.858 19.1129C569.858 6.66255 561.332 1.00175 550.115 1.00175Z" fill="#90775D"/>
<path d="M4.14191 5.93324H18.1029V36.9114H23.3643V6.03743H37.4469V1.21011H4.14191V5.93324Z" stroke="black" stroke-width="2" mask="url(#path-1-inside-1_1_3)"/>
<path d="M78.4617 16.4387H58.3016V1.31429H53.0575V37.0156H58.3016V21.1618H78.4617V37.0156H83.7057V1.31429H78.4617V16.4387Z" stroke="black" stroke-width="2" mask="url(#path-1-inside-1_1_3)"/>
<path d="M105.186 37.0156H133.038V32.1709H110.43V21.1618H126.249V16.3345H110.43V6.03742H133.038V1.31429H105.186V37.0156Z" stroke="black" stroke-width="2" mask="url(#path-1-inside-1_1_3)"/>
<path d="M193.397 16.6471L178.689 1.31429H173.341V37.0156H178.793V8.81573L190.619 21.1618H196.279L208.105 8.91992V37.0156H213.331V1.31429H208.105L193.397 16.6471Z" stroke="black" stroke-width="2" mask="url(#path-1-inside-1_1_3)"/>
<path d="M234.499 37.0156H262.369V32.1709H239.76V21.1618H255.579V16.3345H239.76V6.03742H262.369V1.31429H234.499V37.0156Z" stroke="black" stroke-width="2" mask="url(#path-1-inside-1_1_3)"/>
<path d="M287.46 1.21011H282.199V36.9114H309.652V32.0667H287.46V1.21011Z" stroke="black" stroke-width="2" mask="url(#path-1-inside-1_1_3)"/>
<path d="M356.015 30.4518C353.341 31.268 349.694 31.9625 345.544 31.9625C336.08 31.9625 331.462 27.5346 331.462 18.8003C331.462 10.066 336.08 5.51649 345.544 5.51649C349.243 5.51649 354.174 6.54099 356.432 7.16611L357.769 2.52981C354.469 1.40112 350.163 0.776001 345.544 0.776001C334.327 0.776001 325.992 6.43681 325.992 18.8871C325.992 31.3374 334.431 36.9982 345.544 36.9982C350.059 36.9982 355.303 36.3731 361.259 33.8032V18.3662H356.015V30.4518Z" stroke="black" stroke-width="2" mask="url(#path-1-inside-1_1_3)"/>
<path d="M412.484 37.0156L412.554 37.1198V37.0156H412.484Z" stroke="black" stroke-width="2" mask="url(#path-1-inside-1_1_3)"/>
<path d="M395.901 22.2905H387.062V6.0374H395.901C403.211 6.0374 407.535 8.29478 407.535 14.2681C407.535 20.2415 403.211 22.2905 395.901 22.2905ZM412.866 14.3723C412.866 4.17941 404.844 1.29691 395.901 1.29691H381.923V36.894H387.184V27.1178H398.176L405.677 36.9982H412.467L403.923 26.3017C409.046 24.7563 412.866 21.266 412.866 14.3723Z" stroke="black" stroke-width="2" mask="url(#path-1-inside-1_1_3)"/>
<path d="M439.59 24.5653L445.98 5.7422L452.249 24.5653H439.59ZM442.472 1.71366L429.727 36.9982H435.283L437.836 29.3926H453.881L456.451 36.9982H462.112L449.366 1.4011L442.472 1.71366Z" stroke="black" stroke-width="2" mask="url(#path-1-inside-1_1_3)"/>
<path d="M506.321 31.5631L486.891 1.31429H480.309V37.0156H485.553L485.154 8.81573L503.248 37.0156H511.253V1.31429H506.009L506.321 31.5631Z" stroke="black" stroke-width="2" mask="url(#path-1-inside-1_1_3)"/>
<path d="M550.01 32.1709C539.435 32.1709 535.824 26.3017 535.824 19.0955C535.824 11.8892 539.314 6.03743 550.01 6.03743C560.707 6.03743 564.301 11.9066 564.301 19.0955C564.301 26.2844 560.603 32.1709 550.01 32.1709ZM550.115 1.00175C538.897 1.00175 530.371 6.66255 530.371 19.1129C530.371 31.5632 538.897 37.224 550.115 37.224C561.332 37.224 569.858 31.5632 569.858 19.1129C569.858 6.66255 561.332 1.00175 550.115 1.00175Z" stroke="black" stroke-width="2" mask="url(#path-1-inside-1_1_3)"/>
</g>
<defs>
<filter id="filter0_d_1_3" x="0.141907" y="0.776001" width="573.716" height="44.448" filterUnits="userSpaceOnUse" color-interpolation-filters="sRGB">
<feFlood flood-opacity="0" result="BackgroundImageFix"/>
<feColorMatrix in="SourceAlpha" type="matrix" values="0 0 0 0 0 0 0 0 0 0 0 0 0 0 0 0 0 0 127 0" result="hardAlpha"/>
<feOffset dy="4"/>
<feGaussianBlur stdDeviation="2"/>
<feComposite in2="hardAlpha" operator="out"/>
<feColorMatrix type="matrix" values="0 0 0 0 0 0 0 0 0 0 0 0 0 0 0 0 0 0 0.25 0"/>
<feBlend mode="normal" in2="BackgroundImageFix" result="effect1_dropShadow_1_3"/>
<feBlend mode="normal" in="SourceGraphic" in2="effect1_dropShadow_1_3" result="shape"/>
</filter>
</defs>
</svg>
